<svg width="152" height="29" viewBox="0 0 152 29" fill="none" xmlns="http://www.w3.org/2000/svg">
<path d="M44.4439 19.512H35.0839L33.0679 24H31.2199L38.8999 7.2H40.6519L48.3319 24H46.4599L44.4439 19.512ZM43.7959 18.072L39.7639 9.048L35.7319 18.072H43.7959ZM62.1538 11.376V28.656H60.4498V21.624C59.9218 22.44 59.2418 23.064 58.4098 23.496C57.5938 23.912 56.6738 24.12 55.6498 24.12C54.4498 24.12 53.3698 23.856 52.4098 23.328C51.4658 22.784 50.7218 22.024 50.1778 21.048C49.6338 20.072 49.3618 18.952 49.3618 17.688C49.3618 16.44 49.6338 15.328 50.1778 14.352C50.7218 13.376 51.4738 12.624 52.4338 12.096C53.3938 11.552 54.4658 11.28 55.6498 11.28C56.7058 11.28 57.6498 11.504 58.4818 11.952C59.3298 12.4 60.0098 13.04 60.5218 13.872V11.376H62.1538ZM55.7938 22.608C56.6738 22.608 57.4658 22.408 58.1698 22.008C58.8898 21.592 59.4498 21.008 59.8498 20.256C60.2658 19.504 60.4738 18.648 60.4738 17.688C60.4738 16.728 60.2658 15.88 59.8498 15.144C59.4498 14.392 58.8898 13.808 58.1698 13.392C57.4658 12.976 56.6738 12.768 55.7938 12.768C54.8978 12.768 54.0898 12.976 53.3698 13.392C52.6658 13.808 52.1058 14.392 51.6898 15.144C51.2898 15.88 51.0898 16.728 51.0898 17.688C51.0898 18.648 51.2898 19.504 51.6898 20.256C52.1058 21.008 52.6658 21.592 53.3698 22.008C54.0898 22.408 54.8978 22.608 55.7938 22.608ZM78.2754 11.376V24H76.6434V21.696C76.1954 22.464 75.5794 23.064 74.7954 23.496C74.0114 23.912 73.1154 24.12 72.1074 24.12C70.4594 24.12 69.1554 23.664 68.1954 22.752C67.2514 21.824 66.7794 20.472 66.7794 18.696V11.376H68.4834V18.528C68.4834 19.856 68.8114 20.864 69.4674 21.552C70.1234 22.24 71.0594 22.584 72.2754 22.584C73.6034 22.584 74.6514 22.184 75.4194 21.384C76.1874 20.568 76.5714 19.44 76.5714 18V11.376H78.2754ZM87.4639 11.28C89.1119 11.28 90.3759 11.696 91.2559 12.528C92.1359 13.344 92.5759 14.56 92.5759 16.176V24H90.9439V22.032C90.5599 22.688 89.9919 23.2 89.2399 23.568C88.5039 23.936 87.6239 24.12 86.5999 24.12C85.1919 24.12 84.0719 23.784 83.2399 23.112C82.4079 22.44 81.9919 21.552 81.9919 20.448C81.9919 19.376 82.3759 18.512 83.1439 17.856C83.9279 17.2 85.1679 16.872 86.8639 16.872H90.8719V16.104C90.8719 15.016 90.5679 14.192 89.9599 13.632C89.3519 13.056 88.4639 12.768 87.2959 12.768C86.4959 12.768 85.7279 12.904 84.9919 13.176C84.2559 13.432 83.6239 13.792 83.0959 14.256L82.3279 12.984C82.9679 12.44 83.7359 12.024 84.6319 11.736C85.5279 11.432 86.4719 11.28 87.4639 11.28ZM86.8639 22.776C87.8239 22.776 88.6479 22.56 89.3359 22.128C90.0239 21.68 90.5359 21.04 90.8719 20.208V18.144H86.9119C84.7519 18.144 83.6719 18.896 83.6719 20.4C83.6719 21.136 83.9519 21.72 84.5119 22.152C85.0719 22.568 85.8559 22.776 86.8639 22.776ZM109.156 15.264C110.116 15.568 110.868 16.08 111.412 16.8C111.956 17.504 112.228 18.376 112.228 19.416C112.228 20.888 111.652 22.024 110.5 22.824C109.364 23.608 107.7 24 105.508 24H96.8201V7.2H105.028C107.076 7.2 108.644 7.592 109.732 8.376C110.836 9.16 111.388 10.224 111.388 11.568C111.388 12.384 111.188 13.112 110.788 13.752C110.404 14.392 109.86 14.896 109.156 15.264ZM100.684 10.128V14.088H104.548C105.508 14.088 106.236 13.92 106.732 13.584C107.228 13.248 107.476 12.752 107.476 12.096C107.476 11.44 107.228 10.952 106.732 10.632C106.236 10.296 105.508 10.128 104.548 10.128H100.684ZM105.22 21.072C106.244 21.072 107.012 20.904 107.524 20.568C108.052 20.232 108.316 19.712 108.316 19.008C108.316 17.616 107.284 16.92 105.22 16.92H100.684V21.072H105.22ZM114.908 11.088H118.652V24H114.908V11.088ZM116.78 9.288C116.092 9.288 115.532 9.088 115.1 8.688C114.668 8.288 114.452 7.792 114.452 7.2C114.452 6.608 114.668 6.112 115.1 5.712C115.532 5.312 116.092 5.112 116.78 5.112C117.468 5.112 118.028 5.304 118.46 5.688C118.892 6.072 119.108 6.552 119.108 7.128C119.108 7.752 118.892 8.272 118.46 8.688C118.028 9.088 117.468 9.288 116.78 9.288ZM130.454 23.376C130.086 23.648 129.63 23.856 129.086 24C128.558 24.128 127.998 24.192 127.406 24.192C125.87 24.192 124.678 23.8 123.83 23.016C122.998 22.232 122.582 21.08 122.582 19.56V14.256H120.59V11.376H122.582V8.232H126.326V11.376H129.542V14.256H126.326V19.512C126.326 20.056 126.462 20.48 126.734 20.784C127.022 21.072 127.422 21.216 127.934 21.216C128.526 21.216 129.03 21.056 129.446 20.736L130.454 23.376Z" fill="black"/>
<g clip-path="url(#clip0_9_224)">
<path d="M20.3749 11.2666C17.6528 7.71404 15.069 5.31487 14.8384 0.608817C14.8384 0.470403 14.7923 0.378128 14.7 0.285852C14.6539 0.0551631 14.4232 -0.0832503 14.1925 0.0551631C13.9157 0.0551631 13.6851 0.239714 13.6851 0.562679C7.87169 6.83742 -1.95566 22.755 10.4093 27.3225C15.9919 29.3988 22.3128 26.5844 23.4201 20.4941C24.0198 17.2184 22.3127 13.7582 20.3749 11.2666ZM10.4553 24.3698C9.11734 23.5854 8.28686 22.0168 7.87162 20.6326C7.68707 19.9406 7.59479 19.2486 7.64093 18.5565C7.91775 17.3569 8.28686 16.2034 8.7021 15.05C8.93279 16.065 9.39416 17.0801 10.0401 17.8182C11.5165 19.4332 14.5155 20.402 15.3459 22.4321C15.8535 23.6777 13.8695 24.739 13.0391 25.0157C12.1624 25.2925 11.1935 24.8312 10.4553 24.3698Z" fill="black"/>
</g>
<defs>
<clipPath id="clip0_9_224">
<rect width="28" height="28" fill="white"/>
</clipPath>
</defs>
</svg>
