<svg width="98" height="42" viewBox="0 0 98 42" fill="none" xmlns="http://www.w3.org/2000/svg">
<g clip-path="url(#clip0_9_223)">
<path d="M20.3749 11.2667C17.6528 7.7141 15.069 5.31493 14.8384 0.608878C14.8384 0.470464 14.7923 0.378189 14.7 0.285913C14.6539 0.0552241 14.4232 -0.0831893 14.1925 0.0552241C13.9157 0.0552241 13.6851 0.239775 13.6851 0.56274C7.87169 6.83748 -1.95566 22.755 10.4093 27.3226C15.9919 29.3989 22.3128 26.5845 23.4201 20.4942C24.0198 17.2185 22.3127 13.7582 20.3749 11.2667ZM10.4553 24.3698C9.11734 23.5855 8.28686 22.0169 7.87162 20.6327C7.68707 19.9406 7.59479 19.2486 7.64093 18.5566C7.91775 17.357 8.28686 16.2035 8.7021 15.0501C8.93279 16.065 9.39416 17.0801 10.0401 17.8183C11.5165 19.4333 14.5155 20.4021 15.3459 22.4321C15.8535 23.6778 13.8695 24.739 13.0391 25.0158C12.1624 25.2926 11.1935 24.8313 10.4553 24.3698Z" fill="black"/>
</g>
<path d="M41.272 18.512H31.912L29.896 23H28.048L35.728 6.2H37.48L45.16 23H43.288L41.272 18.512ZM40.624 17.072L36.592 8.048L32.56 17.072H40.624ZM59.5311 14.264C60.4911 14.568 61.2431 15.08 61.7871 15.8C62.3311 16.504 62.6031 17.376 62.6031 18.416C62.6031 19.888 62.0271 21.024 60.8751 21.824C59.7391 22.608 58.0751 23 55.8831 23H47.1951V6.2H55.4031C57.4511 6.2 59.0191 6.592 60.1071 7.376C61.2111 8.16 61.7631 9.224 61.7631 10.568C61.7631 11.384 61.5631 12.112 61.1631 12.752C60.7791 13.392 60.2351 13.896 59.5311 14.264ZM51.0591 9.128V13.088H54.9231C55.8831 13.088 56.6111 12.92 57.1071 12.584C57.6031 12.248 57.8511 11.752 57.8511 11.096C57.8511 10.44 57.6031 9.952 57.1071 9.632C56.6111 9.296 55.8831 9.128 54.9231 9.128H51.0591ZM55.5951 20.072C56.6191 20.072 57.3871 19.904 57.8991 19.568C58.4271 19.232 58.6911 18.712 58.6911 18.008C58.6911 16.616 57.6591 15.92 55.5951 15.92H51.0591V20.072H55.5951ZM65.2827 10.088H69.0267V23H65.2827V10.088ZM67.1547 8.288C66.4667 8.288 65.9067 8.088 65.4747 7.688C65.0427 7.288 64.8267 6.792 64.8267 6.2C64.8267 5.608 65.0427 5.112 65.4747 4.712C65.9067 4.312 66.4667 4.112 67.1547 4.112C67.8427 4.112 68.4027 4.304 68.8347 4.688C69.2667 5.072 69.4827 5.552 69.4827 6.128C69.4827 6.752 69.2667 7.272 68.8347 7.688C68.4027 8.088 67.8427 8.288 67.1547 8.288ZM80.8294 22.376C80.4614 22.648 80.0054 22.856 79.4614 23C78.9334 23.128 78.3734 23.192 77.7814 23.192C76.2454 23.192 75.0534 22.8 74.2054 22.016C73.3734 21.232 72.9574 20.08 72.9574 18.56V13.256H70.9654V10.376H72.9574V7.232H76.7014V10.376H79.9174V13.256H76.7014V18.512C76.7014 19.056 76.8374 19.48 77.1094 19.784C77.3974 20.072 77.7974 20.216 78.3094 20.216C78.9014 20.216 79.4054 20.056 79.8214 19.736L80.8294 22.376Z" fill="black"/>
<path d="M21.53 36.13H17.63L16.79 38H16.02L19.22 31H19.95L23.15 38H22.37L21.53 36.13ZM21.26 35.53L19.58 31.77L17.9 35.53H21.26ZM28.9091 32.74V39.94H28.1991V37.01C27.9791 37.35 27.6958 37.61 27.3491 37.79C27.0091 37.9633 26.6258 38.05 26.1991 38.05C25.6991 38.05 25.2491 37.94 24.8491 37.72C24.4558 37.4933 24.1458 37.1767 23.9191 36.77C23.6925 36.3633 23.5791 35.8967 23.5791 35.37C23.5791 34.85 23.6925 34.3867 23.9191 33.98C24.1458 33.5733 24.4591 33.26 24.8591 33.04C25.2591 32.8133 25.7058 32.7 26.1991 32.7C26.6391 32.7 27.0325 32.7933 27.3791 32.98C27.7325 33.1667 28.0158 33.4333 28.2291 33.78V32.74H28.9091ZM26.2591 37.42C26.6258 37.42 26.9558 37.3367 27.2491 37.17C27.5491 36.9967 27.7825 36.7533 27.9491 36.44C28.1225 36.1267 28.2091 35.77 28.2091 35.37C28.2091 34.97 28.1225 34.6167 27.9491 34.31C27.7825 33.9967 27.5491 33.7533 27.2491 33.58C26.9558 33.4067 26.6258 33.32 26.2591 33.32C25.8858 33.32 25.5491 33.4067 25.2491 33.58C24.9558 33.7533 24.7225 33.9967 24.5491 34.31C24.3825 34.6167 24.2991 34.97 24.2991 35.37C24.2991 35.77 24.3825 36.1267 24.5491 36.44C24.7225 36.7533 24.9558 36.9967 25.2491 37.17C25.5491 37.3367 25.8858 37.42 26.2591 37.42ZM35.6265 32.74V38H34.9465V37.04C34.7598 37.36 34.5032 37.61 34.1765 37.79C33.8498 37.9633 33.4765 38.05 33.0565 38.05C32.3698 38.05 31.8265 37.86 31.4265 37.48C31.0332 37.0933 30.8365 36.53 30.8365 35.79V32.74H31.5465V35.72C31.5465 36.2733 31.6832 36.6933 31.9565 36.98C32.2298 37.2667 32.6198 37.41 33.1265 37.41C33.6798 37.41 34.1165 37.2433 34.4365 36.91C34.7565 36.57 34.9165 36.1 34.9165 35.5V32.74H35.6265ZM39.455 32.7C40.1417 32.7 40.6683 32.8733 41.035 33.22C41.4017 33.56 41.585 34.0667 41.585 34.74V38H40.905V37.18C40.745 37.4533 40.5083 37.6667 40.195 37.82C39.8883 37.9733 39.5217 38.05 39.095 38.05C38.5083 38.05 38.0417 37.91 37.695 37.63C37.3483 37.35 37.175 36.98 37.175 36.52C37.175 36.0733 37.335 35.7133 37.655 35.44C37.9817 35.1667 38.4983 35.03 39.205 35.03H40.875V34.71C40.875 34.2567 40.7483 33.9133 40.495 33.68C40.2417 33.44 39.8717 33.32 39.385 33.32C39.0517 33.32 38.7317 33.3767 38.425 33.49C38.1183 33.5967 37.855 33.7467 37.635 33.94L37.315 33.41C37.5817 33.1833 37.9017 33.01 38.275 32.89C38.6483 32.7633 39.0417 32.7 39.455 32.7ZM39.205 37.49C39.605 37.49 39.9483 37.4 40.235 37.22C40.5217 37.0333 40.735 36.7667 40.875 36.42V35.56H39.225C38.325 35.56 37.875 35.8733 37.875 36.5C37.875 36.8067 37.9917 37.05 38.225 37.23C38.4583 37.4033 38.785 37.49 39.205 37.49ZM48.0734 34.39C48.5334 34.49 48.8868 34.69 49.1334 34.99C49.3868 35.2833 49.5134 35.6633 49.5134 36.13C49.5134 36.73 49.2901 37.1933 48.8434 37.52C48.4034 37.84 47.7501 38 46.8834 38H43.6634V31H46.6834C47.4634 31 48.0668 31.1567 48.4934 31.47C48.9268 31.7833 49.1434 32.2267 49.1434 32.8C49.1434 33.1867 49.0468 33.5167 48.8534 33.79C48.6668 34.0567 48.4068 34.2567 48.0734 34.39ZM44.4034 31.61V34.15H46.6334C47.2001 34.15 47.6368 34.0433 47.9434 33.83C48.2501 33.61 48.4034 33.2933 48.4034 32.88C48.4034 32.4667 48.2501 32.1533 47.9434 31.94C47.6368 31.72 47.2001 31.61 46.6334 31.61H44.4034ZM46.8734 37.39C47.5001 37.39 47.9734 37.2833 48.2934 37.07C48.6134 36.8567 48.7734 36.5233 48.7734 36.07C48.7734 35.1967 48.1401 34.76 46.8734 34.76H44.4034V37.39H46.8734ZM51.0525 32.74H51.7625V38H51.0525V32.74ZM51.4125 31.59C51.2658 31.59 51.1425 31.54 51.0425 31.44C50.9425 31.34 50.8925 31.22 50.8925 31.08C50.8925 30.9467 50.9425 30.83 51.0425 30.73C51.1425 30.63 51.2658 30.58 51.4125 30.58C51.5592 30.58 51.6825 30.63 51.7825 30.73C51.8825 30.8233 51.9325 30.9367 51.9325 31.07C51.9325 31.2167 51.8825 31.34 51.7825 31.44C51.6825 31.54 51.5592 31.59 51.4125 31.59ZM56.508 37.68C56.3747 37.8 56.208 37.8933 56.008 37.96C55.8147 38.02 55.6114 38.05 55.398 38.05C54.9047 38.05 54.5247 37.9167 54.258 37.65C53.9914 37.3833 53.858 37.0067 53.858 36.52V33.34H52.918V32.74H53.858V31.59H54.568V32.74H56.168V33.34H54.568V36.48C54.568 36.7933 54.6447 37.0333 54.798 37.2C54.958 37.36 55.1847 37.44 55.478 37.44C55.6247 37.44 55.7647 37.4167 55.898 37.37C56.038 37.3233 56.158 37.2567 56.258 37.17L56.508 37.68ZM64.7277 37.36V38H59.8177V37.49L62.7277 34.64C63.0944 34.28 63.3411 33.97 63.4677 33.71C63.6011 33.4433 63.6677 33.1767 63.6677 32.91C63.6677 32.4967 63.5244 32.1767 63.2377 31.95C62.9577 31.7167 62.5544 31.6 62.0277 31.6C61.2077 31.6 60.5711 31.86 60.1177 32.38L59.6077 31.94C59.8811 31.62 60.2277 31.3733 60.6477 31.2C61.0744 31.0267 61.5544 30.94 62.0877 30.94C62.8011 30.94 63.3644 31.11 63.7777 31.45C64.1977 31.7833 64.4077 32.2433 64.4077 32.83C64.4077 33.19 64.3277 33.5367 64.1677 33.87C64.0077 34.2033 63.7044 34.5867 63.2577 35.02L60.8777 37.36H64.7277ZM68.3823 38.06C67.8423 38.06 67.3589 37.9167 66.9323 37.63C66.5123 37.3433 66.1823 36.9333 65.9423 36.4C65.7089 35.86 65.5923 35.2267 65.5923 34.5C65.5923 33.7733 65.7089 33.1433 65.9423 32.61C66.1823 32.07 66.5123 31.6567 66.9323 31.37C67.3589 31.0833 67.8423 30.94 68.3823 30.94C68.9223 30.94 69.4023 31.0833 69.8223 31.37C70.2489 31.6567 70.5823 32.07 70.8223 32.61C71.0623 33.1433 71.1823 33.7733 71.1823 34.5C71.1823 35.2267 71.0623 35.86 70.8223 36.4C70.5823 36.9333 70.2489 37.3433 69.8223 37.63C69.4023 37.9167 68.9223 38.06 68.3823 38.06ZM68.3823 37.4C68.7889 37.4 69.1456 37.2867 69.4523 37.06C69.7656 36.8333 70.0089 36.5033 70.1823 36.07C70.3556 35.6367 70.4423 35.1133 70.4423 34.5C70.4423 33.8867 70.3556 33.3633 70.1823 32.93C70.0089 32.4967 69.7656 32.1667 69.4523 31.94C69.1456 31.7133 68.7889 31.6 68.3823 31.6C67.9756 31.6 67.6156 31.7133 67.3023 31.94C66.9956 32.1667 66.7556 32.4967 66.5823 32.93C66.4089 33.3633 66.3223 33.8867 66.3223 34.5C66.3223 35.1133 66.4089 35.6367 66.5823 36.07C66.7556 36.5033 66.9956 36.8333 67.3023 37.06C67.6156 37.2867 67.9756 37.4 68.3823 37.4ZM76.9738 37.36V38H72.0638V37.49L74.9738 34.64C75.3405 34.28 75.5872 33.97 75.7138 33.71C75.8472 33.4433 75.9138 33.1767 75.9138 32.91C75.9138 32.4967 75.7705 32.1767 75.4838 31.95C75.2038 31.7167 74.8005 31.6 74.2738 31.6C73.4538 31.6 72.8172 31.86 72.3638 32.38L71.8538 31.94C72.1272 31.62 72.4738 31.3733 72.8938 31.2C73.3205 31.0267 73.8005 30.94 74.3338 30.94C75.0472 30.94 75.6105 31.11 76.0238 31.45C76.4438 31.7833 76.6538 32.2433 76.6538 32.83C76.6538 33.19 76.5738 33.5367 76.4138 33.87C76.2538 34.2033 75.9505 34.5867 75.5038 35.02L73.1238 37.36H76.9738ZM79.8174 31V38H79.0974V31.64H77.4474V31H79.8174Z" fill="black"/>
<defs>
<clipPath id="clip0_9_223">
<rect width="28" height="28" fill="white"/>
</clipPath>
</defs>
</svg>
