<svg width="32" height="32" viewBox="0 0 32 32" fill="none" xmlns="http://www.w3.org/2000/svg">
<g clip-path="url(#clip0_8_110)">
<path d="M23.2856 12.8761C20.1747 8.81599 17.2218 6.07409 16.9582 0.695738C16.9582 0.537552 16.9055 0.432094 16.8 0.326636C16.7473 0.0629912 16.4836 -0.0951956 16.22 0.0629912C15.9036 0.0629912 15.6401 0.273907 15.6401 0.643009C8.99622 7.81414 -2.23504 26.0056 11.8963 31.2257C18.2765 33.5986 25.5004 30.3821 26.7659 23.4218C27.4513 19.6781 25.5002 15.7236 23.2856 12.8761ZM11.949 27.8511C10.4198 26.9547 9.4707 25.162 8.99614 23.5801C8.78522 22.7892 8.67976 21.9983 8.73249 21.2074C9.04887 19.8364 9.4707 18.5181 9.94526 17.2C10.2089 18.3599 10.7362 19.5201 11.4744 20.3636C13.1617 22.2093 16.5891 23.3165 17.5382 25.6366C18.1182 27.0602 15.8509 28.2731 14.9018 28.5893C13.8999 28.9057 12.7925 28.3785 11.949 27.8511Z" fill="#27E3BF"/>
</g>
<defs>
<clipPath id="clip0_8_110">
<rect width="32" height="32" fill="white"/>
</clipPath>
</defs>
</svg>
